<mxfile host="app.diagrams.net" agent="Mozilla/5.0 (Windows NT 10.0; Win64; x64) AppleWebKit/537.36 (KHTML, like Gecko) Chrome/133.0.0.0 Safari/537.36" version="26.0.15" pages="2">
  <diagram name="Page-1" id="F0a9ZSijTWrto23bqJ9x">
    <mxGraphModel dx="1034" dy="446" grid="1" gridSize="10" guides="1" tooltips="1" connect="1" arrows="1" fold="1" page="1" pageScale="1" pageWidth="850" pageHeight="1100" math="0" shadow="0">
      <root>
        <mxCell id="0" />
        <mxCell id="1" parent="0" />
        <mxCell id="xVKr9yr6u5Sa1HT3-dFN-95" value="" style="strokeWidth=1;shadow=0;dashed=0;align=center;html=1;shape=mxgraph.mockup.forms.rrect;rSize=0;strokeColor=#999999;fillColor=light-dark(#000000,#030303);fontColor=#393C56;" parent="1" vertex="1">
          <mxGeometry x="20" y="200" width="330" height="620" as="geometry" />
        </mxCell>
        <mxCell id="xVKr9yr6u5Sa1HT3-dFN-96" value="Contact Us" style="strokeWidth=1;shadow=0;dashed=0;align=center;html=1;shape=mxgraph.mockup.forms.anchor;fontSize=18;fontColor=#666666;align=left;resizeWidth=1;spacingLeft=0;strokeColor=#E07A5F;fillColor=#F2CC8F;fontFamily=Courier New;" parent="xVKr9yr6u5Sa1HT3-dFN-95" vertex="1">
          <mxGeometry width="165" height="20" relative="1" as="geometry">
            <mxPoint x="10" y="10" as="offset" />
          </mxGeometry>
        </mxCell>
        <mxCell id="xVKr9yr6u5Sa1HT3-dFN-97" value="" style="shape=line;strokeColor=#ddeeff;strokeWidth=2;html=1;resizeWidth=1;fontColor=#393C56;fillColor=#F2CC8F;fontFamily=Courier New;fontSize=18;" parent="xVKr9yr6u5Sa1HT3-dFN-95" vertex="1">
          <mxGeometry width="297" height="10" relative="1" as="geometry">
            <mxPoint x="10" y="30" as="offset" />
          </mxGeometry>
        </mxCell>
        <mxCell id="xVKr9yr6u5Sa1HT3-dFN-98" value="Name" style="strokeWidth=1;shadow=0;dashed=0;align=center;html=1;shape=mxgraph.mockup.forms.anchor;fontSize=18;fontColor=#666666;align=left;resizeWidth=1;spacingLeft=0;strokeColor=#E07A5F;fillColor=#F2CC8F;fontFamily=Courier New;" parent="xVKr9yr6u5Sa1HT3-dFN-95" vertex="1">
          <mxGeometry width="165" height="20" relative="1" as="geometry">
            <mxPoint x="10" y="40" as="offset" />
          </mxGeometry>
        </mxCell>
        <mxCell id="xVKr9yr6u5Sa1HT3-dFN-99" value="Valcergy" style="strokeWidth=1;shadow=0;dashed=0;align=center;html=1;shape=mxgraph.mockup.forms.rrect;rSize=0;strokeColor=#999999;fontColor=#666666;align=left;spacingLeft=5;resizeWidth=1;fillColor=light-dark(#F2CC8F,#121212);fontFamily=Courier New;fontSize=18;" parent="xVKr9yr6u5Sa1HT3-dFN-95" vertex="1">
          <mxGeometry width="247.5" height="25" relative="1" as="geometry">
            <mxPoint x="10" y="60" as="offset" />
          </mxGeometry>
        </mxCell>
        <mxCell id="xVKr9yr6u5Sa1HT3-dFN-100" value="E-Mail" style="strokeWidth=1;shadow=0;dashed=0;align=center;html=1;shape=mxgraph.mockup.forms.anchor;fontSize=18;fontColor=#666666;align=left;resizeWidth=1;spacingLeft=0;strokeColor=#E07A5F;fillColor=#F2CC8F;fontFamily=Courier New;" parent="xVKr9yr6u5Sa1HT3-dFN-95" vertex="1">
          <mxGeometry width="165" height="20" relative="1" as="geometry">
            <mxPoint x="10" y="95" as="offset" />
          </mxGeometry>
        </mxCell>
        <mxCell id="xVKr9yr6u5Sa1HT3-dFN-101" value="valcergu@gmail.com" style="strokeWidth=1;shadow=0;dashed=0;align=center;html=1;shape=mxgraph.mockup.forms.rrect;rSize=0;strokeColor=#999999;fontColor=#666666;align=left;spacingLeft=5;resizeWidth=1;fillColor=light-dark(#F2CC8F,#090909);fontFamily=Courier New;fontSize=18;" parent="xVKr9yr6u5Sa1HT3-dFN-95" vertex="1">
          <mxGeometry width="247.5" height="25" relative="1" as="geometry">
            <mxPoint x="10" y="115" as="offset" />
          </mxGeometry>
        </mxCell>
        <mxCell id="xVKr9yr6u5Sa1HT3-dFN-104" value="Suscribe to our newsletter&amp;nbsp;" style="shape=line;strokeColor=#ddeeff;strokeWidth=2;html=1;resizeWidth=1;fontColor=#393C56;fillColor=#F2CC8F;fontFamily=Courier New;fontSize=18;" parent="xVKr9yr6u5Sa1HT3-dFN-95" vertex="1">
          <mxGeometry y="1" width="297" height="31" relative="1" as="geometry">
            <mxPoint x="10" y="-111" as="offset" />
          </mxGeometry>
        </mxCell>
        <mxCell id="xVKr9yr6u5Sa1HT3-dFN-106" value="Send Message" style="strokeWidth=1;shadow=0;dashed=0;align=center;html=1;shape=mxgraph.mockup.forms.rrect;rSize=5;strokeColor=none;fontColor=#ffffff;fillColor=#66bbff;fontSize=16;fontStyle=1;" parent="xVKr9yr6u5Sa1HT3-dFN-95" vertex="1">
          <mxGeometry y="1" width="220" height="29" relative="1" as="geometry">
            <mxPoint x="10" y="-40" as="offset" />
          </mxGeometry>
        </mxCell>
        <mxCell id="xVKr9yr6u5Sa1HT3-dFN-108" value="" style="swimlane;strokeColor=#999999;swimlaneFillColor=#FFFFFF;fillColor=#ffffff;fontColor=#666666;fontStyle=0;childLayout=stackLayout;horizontal=1;startSize=0;horizontalStack=0;resizeParent=1;resizeParentMax=0;resizeLast=0;collapsible=0;marginBottom=0;whiteSpace=wrap;html=1;" parent="xVKr9yr6u5Sa1HT3-dFN-95" vertex="1">
          <mxGeometry x="10" y="149.99844444444446" width="250" height="143.07692307692307" as="geometry" />
        </mxCell>
        <mxCell id="xVKr9yr6u5Sa1HT3-dFN-109" value="General Inquiry" style="text;strokeColor=none;align=left;verticalAlign=middle;spacingLeft=27;spacingRight=10;overflow=hidden;points=[[0,0.5],[1,0.5]];portConstraint=eastwest;rotatable=0;whiteSpace=wrap;html=1;fillColor=none;fontColor=#393C56;fontSize=18;fontFamily=Courier New;" parent="xVKr9yr6u5Sa1HT3-dFN-108" vertex="1">
          <mxGeometry width="250" height="47.692307692307686" as="geometry" />
        </mxCell>
        <mxCell id="xVKr9yr6u5Sa1HT3-dFN-110" value="" style="shape=ellipse;resizable=0;fillColor=#EEEEEE;strokeColor=#999999;gradientColor=#cccccc;html=1;fontColor=#393C56;fontFamily=Courier New;fontSize=18;" parent="xVKr9yr6u5Sa1HT3-dFN-109" vertex="1">
          <mxGeometry y="0.5" width="15" height="15" relative="1" as="geometry">
            <mxPoint x="8" y="-7.5" as="offset" />
          </mxGeometry>
        </mxCell>
        <mxCell id="xVKr9yr6u5Sa1HT3-dFN-111" value="Reservation Request" style="text;strokeColor=none;align=left;verticalAlign=middle;spacingLeft=27;spacingRight=10;overflow=hidden;points=[[0,0.5],[1,0.5]];portConstraint=eastwest;rotatable=0;whiteSpace=wrap;html=1;rSize=5;fillColor=none;fontColor=#393C56;fontSize=18;fontFamily=Courier New;" parent="xVKr9yr6u5Sa1HT3-dFN-108" vertex="1">
          <mxGeometry y="47.692307692307686" width="250" height="47.692307692307686" as="geometry" />
        </mxCell>
        <mxCell id="xVKr9yr6u5Sa1HT3-dFN-112" value="" style="shape=ellipse;resizable=0;fillColor=#EEEEEE;strokeColor=#999999;gradientColor=#cccccc;html=1;fontColor=#393C56;fontFamily=Courier New;fontSize=18;" parent="xVKr9yr6u5Sa1HT3-dFN-111" vertex="1">
          <mxGeometry y="0.5" width="15" height="15" relative="1" as="geometry">
            <mxPoint x="8" y="-7.5" as="offset" />
          </mxGeometry>
        </mxCell>
        <mxCell id="xVKr9yr6u5Sa1HT3-dFN-118" value="Website Suggestion" style="text;strokeColor=none;align=left;verticalAlign=middle;spacingLeft=27;spacingRight=10;overflow=hidden;points=[[0,0.5],[1,0.5]];portConstraint=eastwest;rotatable=0;whiteSpace=wrap;html=1;rSize=5;fillColor=none;fontColor=#393C56;fontSize=17;" parent="xVKr9yr6u5Sa1HT3-dFN-108" vertex="1">
          <mxGeometry y="95.38461538461537" width="250" height="47.692307692307686" as="geometry" />
        </mxCell>
        <mxCell id="xVKr9yr6u5Sa1HT3-dFN-119" value="" style="shape=ellipse;resizable=0;fillColor=#EEEEEE;strokeColor=#999999;gradientColor=#cccccc;html=1;fontColor=#393C56;fontFamily=Courier New;fontSize=18;" parent="xVKr9yr6u5Sa1HT3-dFN-118" vertex="1">
          <mxGeometry y="0.5" width="15" height="15" relative="1" as="geometry">
            <mxPoint x="8" y="-7.5" as="offset" />
          </mxGeometry>
        </mxCell>
        <mxCell id="xVKr9yr6u5Sa1HT3-dFN-127" value="&lt;font face=&quot;Courier New&quot; style=&quot;font-size: 18px;&quot;&gt;Message:&lt;/font&gt;" style="text;html=1;align=center;verticalAlign=middle;whiteSpace=wrap;rounded=0;fontColor=#393C56;" parent="xVKr9yr6u5Sa1HT3-dFN-95" vertex="1">
          <mxGeometry x="10" y="310" width="80" height="30" as="geometry" />
        </mxCell>
        <mxCell id="xVKr9yr6u5Sa1HT3-dFN-132" value="" style="rounded=0;whiteSpace=wrap;html=1;strokeColor=light-dark(#000000,#351FFF);fontColor=#393C56;fillColor=light-dark(#000000,#030303);" parent="xVKr9yr6u5Sa1HT3-dFN-95" vertex="1">
          <mxGeometry x="10" y="340.0042424242424" width="300" height="157.87454545454545" as="geometry" />
        </mxCell>
        <mxCell id="xVKr9yr6u5Sa1HT3-dFN-122" value="" style="verticalLabelPosition=bottom;shadow=0;dashed=0;align=center;html=1;verticalAlign=top;strokeWidth=1;shape=mxgraph.mockup.misc.map;strokeColor=#E07A5F;fontColor=#393C56;fillColor=#F2CC8F;" parent="1" vertex="1">
          <mxGeometry x="400" y="320" width="430" height="280" as="geometry" />
        </mxCell>
        <mxCell id="xVKr9yr6u5Sa1HT3-dFN-123" value="&lt;h1 style=&quot;margin-top: 0px;&quot;&gt;&lt;font style=&quot;font-size: 18px;&quot;&gt;Office Address&lt;/font&gt;&lt;/h1&gt;&lt;div&gt;&lt;font style=&quot;font-size: 18px;&quot;&gt;523 S Center St&lt;/font&gt;&lt;/div&gt;&lt;div&gt;&lt;font style=&quot;font-size: 18px;&quot;&gt;Rexburg, ID 83460&lt;/font&gt;&lt;/div&gt;&lt;div&gt;&lt;font style=&quot;font-size: 18px;&quot;&gt;&lt;br&gt;&lt;/font&gt;&lt;/div&gt;&lt;div&gt;&lt;font style=&quot;font-size: 18px;&quot;&gt;phone: (123) 555-1234&lt;/font&gt;&lt;/div&gt;" style="text;html=1;whiteSpace=wrap;overflow=hidden;rounded=0;fontColor=#393C56;" parent="1" vertex="1">
          <mxGeometry x="400" y="150" width="260" height="140" as="geometry" />
        </mxCell>
        <mxCell id="xVKr9yr6u5Sa1HT3-dFN-124" value="" style="verticalLabelPosition=bottom;shadow=0;dashed=0;align=center;html=1;verticalAlign=top;strokeWidth=1;shape=mxgraph.mockup.containers.userMale;strokeColor=#666666;strokeColor2=#008cff;fontColor=#393C56;fillColor=light-dark(#F2CC8F,#FBBAFF);" parent="1" vertex="1">
          <mxGeometry x="425" y="820" width="100" height="100" as="geometry" />
        </mxCell>
        <mxCell id="xVKr9yr6u5Sa1HT3-dFN-125" value="" style="verticalLabelPosition=bottom;shadow=0;dashed=0;align=center;html=1;verticalAlign=top;strokeWidth=1;shape=mxgraph.mockup.containers.userFemale;strokeColor=#666666;strokeColor2=#008cff;fontColor=#393C56;fillColor=light-dark(#F2CC8F,#FFACF4);" parent="1" vertex="1">
          <mxGeometry x="580" y="820" width="100" height="100" as="geometry" />
        </mxCell>
        <mxCell id="xVKr9yr6u5Sa1HT3-dFN-126" value="" style="verticalLabelPosition=bottom;shadow=0;dashed=0;align=center;html=1;verticalAlign=top;strokeWidth=1;shape=mxgraph.mockup.containers.userMale;strokeColor=#666666;strokeColor2=#008cff;fontColor=#393C56;fillColor=light-dark(#F2CC8F,#FFD1F8);" parent="1" vertex="1">
          <mxGeometry x="720" y="820" width="100" height="100" as="geometry" />
        </mxCell>
        <mxCell id="xVKr9yr6u5Sa1HT3-dFN-133" value="Employees" style="text;html=1;align=center;verticalAlign=middle;whiteSpace=wrap;rounded=0;fontColor=#393C56;" parent="1" vertex="1">
          <mxGeometry x="360" y="820" width="60" height="40" as="geometry" />
        </mxCell>
        <mxCell id="GMf8llo1THZVuI4ThK8o-2" value="" style="group" vertex="1" connectable="0" parent="1">
          <mxGeometry x="30" y="20" width="780" height="90" as="geometry" />
        </mxCell>
        <mxCell id="xVKr9yr6u5Sa1HT3-dFN-73" value="" style="rounded=0;whiteSpace=wrap;html=1;fillColor=light-dark(#F2CC8F,#FFACE3);fontColor=#393C56;strokeColor=light-dark(#E07A5F,#FFA5EB);labelBackgroundColor=none;" parent="GMf8llo1THZVuI4ThK8o-2" vertex="1">
          <mxGeometry width="780" height="90" as="geometry" />
        </mxCell>
        <mxCell id="xVKr9yr6u5Sa1HT3-dFN-76" value="" style="swimlane;shape=mxgraph.bootstrap.anchor;strokeColor=#999999;fillColor=#ffffff;fontColor=#666666;childLayout=stackLayout;horizontal=0;startSize=0;horizontalStack=1;resizeParent=1;resizeParentMax=0;resizeLast=0;collapsible=0;marginBottom=0;whiteSpace=wrap;html=1;" parent="GMf8llo1THZVuI4ThK8o-2" vertex="1">
          <mxGeometry x="250" y="30" width="420" height="30" as="geometry" />
        </mxCell>
        <mxCell id="xVKr9yr6u5Sa1HT3-dFN-77" value="Home" style="text;strokeColor=inherit;align=center;verticalAlign=middle;spacingLeft=10;spacingRight=10;overflow=hidden;points=[[0,0.5],[1,0.5]];portConstraint=eastwest;rotatable=0;whiteSpace=wrap;html=1;fillColor=inherit;fontColor=#393C56;fontSize=17;" parent="xVKr9yr6u5Sa1HT3-dFN-76" vertex="1">
          <mxGeometry width="90" height="30" as="geometry" />
        </mxCell>
        <mxCell id="xVKr9yr6u5Sa1HT3-dFN-78" value="Abous Us" style="text;strokeColor=inherit;align=center;verticalAlign=middle;spacingLeft=10;spacingRight=10;overflow=hidden;points=[[0,0.5],[1,0.5]];portConstraint=eastwest;rotatable=0;whiteSpace=wrap;html=1;fillColor=inherit;fontColor=#393C56;fontSize=17;" parent="xVKr9yr6u5Sa1HT3-dFN-76" vertex="1">
          <mxGeometry x="90" width="110" height="30" as="geometry" />
        </mxCell>
        <mxCell id="xVKr9yr6u5Sa1HT3-dFN-79" value="Trips" style="text;strokeColor=inherit;align=center;verticalAlign=middle;spacingLeft=10;spacingRight=10;overflow=hidden;points=[[0,0.5],[1,0.5]];portConstraint=eastwest;rotatable=0;whiteSpace=wrap;html=1;fillColor=inherit;fontColor=#393C56;fontSize=17;" parent="xVKr9yr6u5Sa1HT3-dFN-76" vertex="1">
          <mxGeometry x="200" width="90" height="30" as="geometry" />
        </mxCell>
        <mxCell id="xVKr9yr6u5Sa1HT3-dFN-80" value="Contact Us&lt;div&gt;&lt;br&gt;&lt;/div&gt;" style="text;strokeColor=inherit;align=center;verticalAlign=middle;spacingLeft=10;spacingRight=10;overflow=hidden;points=[[0,0.5],[1,0.5]];portConstraint=eastwest;rotatable=0;whiteSpace=wrap;html=1;fillColor=inherit;fontColor=#393C56;fontSize=17;" parent="xVKr9yr6u5Sa1HT3-dFN-76" vertex="1">
          <mxGeometry x="290" width="130" height="30" as="geometry" />
        </mxCell>
        <mxCell id="xVKr9yr6u5Sa1HT3-dFN-91" value="" style="verticalLabelPosition=bottom;shadow=0;dashed=0;align=center;html=1;verticalAlign=top;strokeWidth=1;shape=mxgraph.mockup.graphics.simpleIcon;strokeColor=#999999;fontColor=#393C56;fillColor=light-dark(#F2CC8F,#040404);" parent="GMf8llo1THZVuI4ThK8o-2" vertex="1">
          <mxGeometry x="30" y="10" width="80" height="70" as="geometry" />
        </mxCell>
        <mxCell id="nHwyJXWA93hQnR9qDRQE-3" value="" style="group" vertex="1" connectable="0" parent="1">
          <mxGeometry x="10" y="980" width="810" height="100" as="geometry" />
        </mxCell>
        <mxCell id="xVKr9yr6u5Sa1HT3-dFN-84" value="&lt;div&gt;&lt;b&gt;Footer content including social media iconsLinks&lt;/b&gt;&lt;/div&gt;" style="rounded=0;whiteSpace=wrap;html=1;strokeColor=#E07A5F;fontColor=light-dark(#000000,#030303);fillColor=light-dark(#F2CC8F,#FF99FF);fontSize=10;" parent="nHwyJXWA93hQnR9qDRQE-3" vertex="1">
          <mxGeometry width="810" height="100" as="geometry" />
        </mxCell>
        <mxCell id="GMf8llo1THZVuI4ThK8o-1" value="" style="group" vertex="1" connectable="0" parent="nHwyJXWA93hQnR9qDRQE-3">
          <mxGeometry x="325" y="60" width="170" height="35" as="geometry" />
        </mxCell>
        <mxCell id="xVKr9yr6u5Sa1HT3-dFN-88" value="" style="verticalLabelPosition=bottom;shadow=0;dashed=0;align=center;html=1;verticalAlign=top;strokeWidth=1;shape=mxgraph.mockup.graphics.simpleIcon;strokeColor=#999999;fontColor=#393C56;fillColor=light-dark(#F2CC8F,#0D0D0D);" parent="GMf8llo1THZVuI4ThK8o-1" vertex="1">
          <mxGeometry x="60" width="50" height="35" as="geometry" />
        </mxCell>
        <mxCell id="xVKr9yr6u5Sa1HT3-dFN-89" value="" style="verticalLabelPosition=bottom;shadow=0;dashed=0;align=center;html=1;verticalAlign=top;strokeWidth=1;shape=mxgraph.mockup.graphics.simpleIcon;strokeColor=#999999;fontColor=#393C56;fillColor=light-dark(#F2CC8F,#1A1A1A);" parent="GMf8llo1THZVuI4ThK8o-1" vertex="1">
          <mxGeometry width="50" height="35" as="geometry" />
        </mxCell>
        <mxCell id="xVKr9yr6u5Sa1HT3-dFN-90" value="" style="verticalLabelPosition=bottom;shadow=0;dashed=0;align=center;html=1;verticalAlign=top;strokeWidth=1;shape=mxgraph.mockup.graphics.simpleIcon;strokeColor=#999999;fontColor=#393C56;fillColor=light-dark(#F2CC8F,#060606);" parent="GMf8llo1THZVuI4ThK8o-1" vertex="1">
          <mxGeometry x="120" width="50" height="35" as="geometry" />
        </mxCell>
      </root>
    </mxGraphModel>
  </diagram>
  <diagram id="KdjmpKtzzPMHThaQxwKI" name="trips">
    <mxGraphModel dx="1033" dy="446" grid="1" gridSize="10" guides="1" tooltips="1" connect="1" arrows="1" fold="1" page="1" pageScale="1" pageWidth="850" pageHeight="1100" math="0" shadow="0">
      <root>
        <mxCell id="0" />
        <mxCell id="1" parent="0" />
        <mxCell id="hFwgbDUfnu4IQPn4ebph-1" value="" style="group" vertex="1" connectable="0" parent="1">
          <mxGeometry x="30" y="20" width="780" height="90" as="geometry" />
        </mxCell>
        <mxCell id="hFwgbDUfnu4IQPn4ebph-2" value="" style="rounded=0;whiteSpace=wrap;html=1;fillColor=light-dark(#F2CC8F,#FFACE3);fontColor=#393C56;strokeColor=light-dark(#E07A5F,#FFA5EB);labelBackgroundColor=none;" vertex="1" parent="hFwgbDUfnu4IQPn4ebph-1">
          <mxGeometry width="780" height="90" as="geometry" />
        </mxCell>
        <mxCell id="hFwgbDUfnu4IQPn4ebph-3" value="" style="swimlane;shape=mxgraph.bootstrap.anchor;strokeColor=#999999;fillColor=#ffffff;fontColor=#666666;childLayout=stackLayout;horizontal=0;startSize=0;horizontalStack=1;resizeParent=1;resizeParentMax=0;resizeLast=0;collapsible=0;marginBottom=0;whiteSpace=wrap;html=1;" vertex="1" parent="hFwgbDUfnu4IQPn4ebph-1">
          <mxGeometry x="250" y="30" width="420" height="30" as="geometry" />
        </mxCell>
        <mxCell id="hFwgbDUfnu4IQPn4ebph-4" value="Home" style="text;strokeColor=inherit;align=center;verticalAlign=middle;spacingLeft=10;spacingRight=10;overflow=hidden;points=[[0,0.5],[1,0.5]];portConstraint=eastwest;rotatable=0;whiteSpace=wrap;html=1;fillColor=inherit;fontColor=#393C56;fontSize=17;" vertex="1" parent="hFwgbDUfnu4IQPn4ebph-3">
          <mxGeometry width="90" height="30" as="geometry" />
        </mxCell>
        <mxCell id="hFwgbDUfnu4IQPn4ebph-5" value="Abous Us" style="text;strokeColor=inherit;align=center;verticalAlign=middle;spacingLeft=10;spacingRight=10;overflow=hidden;points=[[0,0.5],[1,0.5]];portConstraint=eastwest;rotatable=0;whiteSpace=wrap;html=1;fillColor=inherit;fontColor=#393C56;fontSize=17;" vertex="1" parent="hFwgbDUfnu4IQPn4ebph-3">
          <mxGeometry x="90" width="110" height="30" as="geometry" />
        </mxCell>
        <mxCell id="hFwgbDUfnu4IQPn4ebph-6" value="Trips" style="text;strokeColor=inherit;align=center;verticalAlign=middle;spacingLeft=10;spacingRight=10;overflow=hidden;points=[[0,0.5],[1,0.5]];portConstraint=eastwest;rotatable=0;whiteSpace=wrap;html=1;fillColor=inherit;fontColor=#393C56;fontSize=17;" vertex="1" parent="hFwgbDUfnu4IQPn4ebph-3">
          <mxGeometry x="200" width="90" height="30" as="geometry" />
        </mxCell>
        <mxCell id="hFwgbDUfnu4IQPn4ebph-7" value="Contact Us&lt;div&gt;&lt;br&gt;&lt;/div&gt;" style="text;strokeColor=inherit;align=center;verticalAlign=middle;spacingLeft=10;spacingRight=10;overflow=hidden;points=[[0,0.5],[1,0.5]];portConstraint=eastwest;rotatable=0;whiteSpace=wrap;html=1;fillColor=inherit;fontColor=#393C56;fontSize=17;" vertex="1" parent="hFwgbDUfnu4IQPn4ebph-3">
          <mxGeometry x="290" width="130" height="30" as="geometry" />
        </mxCell>
        <mxCell id="hFwgbDUfnu4IQPn4ebph-8" value="" style="verticalLabelPosition=bottom;shadow=0;dashed=0;align=center;html=1;verticalAlign=top;strokeWidth=1;shape=mxgraph.mockup.graphics.simpleIcon;strokeColor=#999999;fontColor=#393C56;fillColor=light-dark(#F2CC8F,#040404);" vertex="1" parent="hFwgbDUfnu4IQPn4ebph-1">
          <mxGeometry x="30" y="10" width="80" height="70" as="geometry" />
        </mxCell>
        <mxCell id="82TyVXRPf8ZYdx59g4k8-1" value="" style="group" vertex="1" connectable="0" parent="1">
          <mxGeometry x="10" y="980" width="810" height="165" as="geometry" />
        </mxCell>
        <mxCell id="82TyVXRPf8ZYdx59g4k8-155" value="" style="group" vertex="1" connectable="0" parent="82TyVXRPf8ZYdx59g4k8-1">
          <mxGeometry x="10" y="10" width="810" height="110" as="geometry" />
        </mxCell>
        <mxCell id="82TyVXRPf8ZYdx59g4k8-2" value="&lt;div&gt;&lt;br&gt;&lt;/div&gt;&lt;div&gt;&lt;b style=&quot;background-color: transparent; color: light-dark(rgb(0, 0, 0), rgb(3, 3, 3));&quot;&gt;&lt;br&gt;&lt;/b&gt;&lt;/div&gt;&lt;div&gt;&lt;b style=&quot;background-color: transparent; color: light-dark(rgb(0, 0, 0), rgb(3, 3, 3));&quot;&gt;&lt;br&gt;&lt;/b&gt;&lt;/div&gt;&lt;div&gt;&lt;b style=&quot;background-color: transparent; color: light-dark(rgb(0, 0, 0), rgb(3, 3, 3));&quot;&gt;&lt;br&gt;&lt;/b&gt;&lt;/div&gt;&lt;div&gt;&lt;b style=&quot;background-color: transparent; color: light-dark(rgb(0, 0, 0), rgb(3, 3, 3));&quot;&gt;&lt;br&gt;&lt;/b&gt;&lt;/div&gt;&lt;div&gt;&lt;b style=&quot;background-color: transparent; color: light-dark(rgb(0, 0, 0), rgb(3, 3, 3));&quot;&gt;&lt;br&gt;&lt;/b&gt;&lt;/div&gt;&lt;div&gt;&lt;b&gt;Footer content including social media links&lt;/b&gt;&lt;/div&gt;" style="rounded=0;whiteSpace=wrap;html=1;strokeColor=#E07A5F;fontColor=light-dark(#000000,#030303);fillColor=light-dark(#F2CC8F,#FF99FF);fontSize=10;" vertex="1" parent="82TyVXRPf8ZYdx59g4k8-155">
          <mxGeometry y="10" width="810" height="110" as="geometry" />
        </mxCell>
        <mxCell id="82TyVXRPf8ZYdx59g4k8-8" value="" style="verticalLabelPosition=bottom;shadow=0;dashed=0;align=center;html=1;verticalAlign=top;strokeWidth=1;shape=mxgraph.mockup.graphics.simpleIcon;strokeColor=#999999;" vertex="1" parent="82TyVXRPf8ZYdx59g4k8-155">
          <mxGeometry x="480" y="30" width="50" height="39.83" as="geometry" />
        </mxCell>
        <mxCell id="82TyVXRPf8ZYdx59g4k8-142" value="" style="group" vertex="1" connectable="0" parent="82TyVXRPf8ZYdx59g4k8-155">
          <mxGeometry x="290" y="30" width="175" height="39.82758620689654" as="geometry" />
        </mxCell>
        <mxCell id="82TyVXRPf8ZYdx59g4k8-143" value="" style="verticalLabelPosition=bottom;shadow=0;dashed=0;align=center;html=1;verticalAlign=top;strokeWidth=1;shape=mxgraph.mockup.graphics.simpleIcon;strokeColor=#999999;fontColor=#393C56;fillColor=light-dark(#F2CC8F,#0D0D0D);" vertex="1" parent="82TyVXRPf8ZYdx59g4k8-142">
          <mxGeometry x="61.764705882352935" width="51.470588235294116" height="39.82758620689654" as="geometry" />
        </mxCell>
        <mxCell id="82TyVXRPf8ZYdx59g4k8-144" value="" style="verticalLabelPosition=bottom;shadow=0;dashed=0;align=center;html=1;verticalAlign=top;strokeWidth=1;shape=mxgraph.mockup.graphics.simpleIcon;strokeColor=#999999;fontColor=#393C56;fillColor=light-dark(#F2CC8F,#1A1A1A);" vertex="1" parent="82TyVXRPf8ZYdx59g4k8-142">
          <mxGeometry width="51.470588235294116" height="39.82758620689654" as="geometry" />
        </mxCell>
        <mxCell id="82TyVXRPf8ZYdx59g4k8-145" value="" style="verticalLabelPosition=bottom;shadow=0;dashed=0;align=center;html=1;verticalAlign=top;strokeWidth=1;shape=mxgraph.mockup.graphics.simpleIcon;strokeColor=#999999;fontColor=#393C56;fillColor=light-dark(#F2CC8F,#060606);" vertex="1" parent="82TyVXRPf8ZYdx59g4k8-142">
          <mxGeometry x="123.52941176470587" width="51.470588235294116" height="39.82758620689654" as="geometry" />
        </mxCell>
        <mxCell id="82TyVXRPf8ZYdx59g4k8-7" value="&lt;h1&gt;&lt;font style=&quot;font-size: 17px;&quot; face=&quot;Helvetica&quot;&gt;Have some great aventures with us!&lt;/font&gt;&lt;/h1&gt;" style="text;html=1;align=center;verticalAlign=middle;whiteSpace=wrap;rounded=0;" vertex="1" parent="1">
          <mxGeometry x="210" y="120" width="390" height="70" as="geometry" />
        </mxCell>
        <mxCell id="82TyVXRPf8ZYdx59g4k8-23" value="" style="strokeWidth=1;shadow=0;dashed=0;align=center;html=1;shape=mxgraph.mockup.forms.rrect;rSize=0;strokeColor=#999999;fillColor=#ffffff;" vertex="1" parent="1">
          <mxGeometry x="20" y="190" width="110" height="30" as="geometry" />
        </mxCell>
        <mxCell id="82TyVXRPf8ZYdx59g4k8-24" value="" style="strokeWidth=1;shadow=0;dashed=0;align=center;html=1;shape=mxgraph.mockup.forms.anchor;fontSize=12;fontColor=#666666;align=left;resizeWidth=1;spacingLeft=0;" vertex="1" parent="82TyVXRPf8ZYdx59g4k8-23">
          <mxGeometry width="55" height="20" relative="1" as="geometry">
            <mxPoint x="10" y="10" as="offset" />
          </mxGeometry>
        </mxCell>
        <mxCell id="82TyVXRPf8ZYdx59g4k8-26" value="" style="strokeWidth=1;shadow=0;dashed=0;align=center;html=1;shape=mxgraph.mockup.forms.anchor;fontSize=12;fontColor=#9999ff;align=left;spacingLeft=0;fontStyle=4;resizeWidth=1;" vertex="1" parent="82TyVXRPf8ZYdx59g4k8-23">
          <mxGeometry y="1" width="82.5" height="20" relative="1" as="geometry">
            <mxPoint x="10" y="-110" as="offset" />
          </mxGeometry>
        </mxCell>
        <mxCell id="82TyVXRPf8ZYdx59g4k8-27" value="" style="strokeWidth=1;shadow=0;dashed=0;align=center;html=1;shape=mxgraph.mockup.forms.anchor;fontSize=12;fontColor=#666666;align=left;spacingLeft=0;resizeWidth=1;" vertex="1" parent="82TyVXRPf8ZYdx59g4k8-23">
          <mxGeometry y="1" width="82.5" height="20" relative="1" as="geometry">
            <mxPoint x="10" y="-70" as="offset" />
          </mxGeometry>
        </mxCell>
        <mxCell id="82TyVXRPf8ZYdx59g4k8-28" value="&lt;font&gt;Contact Us&lt;/font&gt;" style="strokeWidth=1;shadow=0;dashed=0;align=center;html=1;shape=mxgraph.mockup.forms.rrect;rSize=5;strokeColor=none;fontColor=#ffffff;fillColor=#66bbff;fontSize=16;fontStyle=1;" vertex="1" parent="82TyVXRPf8ZYdx59g4k8-23">
          <mxGeometry y="1" width="110" height="30" relative="1" as="geometry">
            <mxPoint y="-30" as="offset" />
          </mxGeometry>
        </mxCell>
        <UserObject label="&lt;div&gt;&lt;font&gt;&lt;span&gt;&lt;br&gt;&lt;/span&gt;&lt;/font&gt;&lt;/div&gt;&lt;div&gt;&lt;span&gt;&lt;span&gt;Amazon adventure&lt;/span&gt;&lt;/span&gt;&lt;/div&gt;&lt;div&gt;&lt;font&gt;&lt;span&gt;&lt;br&gt;&lt;/span&gt;&lt;/font&gt;&lt;/div&gt;&lt;div&gt;&lt;font&gt;&lt;span&gt;&lt;br&gt;&lt;/span&gt;&lt;/font&gt;&lt;/div&gt;&lt;div&gt;&lt;font&gt;&lt;span&gt;&lt;br&gt;&lt;/span&gt;&lt;/font&gt;&lt;/div&gt;&lt;div&gt;&lt;font&gt;&lt;span&gt;&lt;br&gt;&lt;/span&gt;&lt;/font&gt;&lt;/div&gt;&lt;div&gt;&lt;font&gt;&lt;span&gt;&lt;br&gt;&lt;/span&gt;&lt;/font&gt;&lt;/div&gt;&lt;div&gt;&lt;font&gt;&lt;span&gt;&lt;br&gt;&lt;/span&gt;&lt;/font&gt;&lt;/div&gt;&lt;div&gt;&lt;font&gt;&lt;span&gt;&lt;br&gt;&lt;/span&gt;&lt;/font&gt;&lt;/div&gt;&lt;div&gt;&lt;font&gt;&lt;span&gt;&lt;br&gt;&lt;/span&gt;&lt;/font&gt;&lt;/div&gt;&lt;div&gt;&lt;br&gt;&lt;/div&gt;&lt;div&gt;&lt;br&gt;&lt;/div&gt;&lt;div&gt;&lt;br&gt;&lt;/div&gt;&lt;div&gt;&lt;br&gt;&lt;/div&gt;&lt;div&gt;&lt;br&gt;&lt;/div&gt;&lt;div&gt;&lt;br&gt;&lt;/div&gt;&lt;div&gt;&lt;br&gt;&lt;/div&gt;&lt;div&gt;&lt;font&gt;&lt;span&gt;&lt;br&gt;&lt;/span&gt;&lt;/font&gt;&lt;/div&gt;&lt;div&gt;&lt;font&gt;&lt;span&gt;&lt;br&gt;&lt;/span&gt;&lt;/font&gt;&lt;/div&gt;&lt;div&gt;&lt;font&gt;&lt;span&gt;&lt;br&gt;&lt;/span&gt;&lt;/font&gt;&lt;/div&gt;&lt;div&gt;&lt;font&gt;&lt;span&gt;Description of the trip including a summary&amp;nbsp;&lt;/span&gt;&lt;/font&gt;&lt;/div&gt;&lt;div&gt;&lt;font&gt;&lt;span&gt;about it, duration and price.&lt;/span&gt;&lt;/font&gt;&lt;/div&gt;" id="82TyVXRPf8ZYdx59g4k8-29">
          <mxCell style="shape=ext;double=1;rounded=0;whiteSpace=wrap;html=1;fontSize=10;fontStyle=3;fontFamily=Comic Sans MS;" vertex="1" parent="1">
            <mxGeometry x="20" y="230" width="360" height="310" as="geometry" />
          </mxCell>
        </UserObject>
        <UserObject label="&lt;div&gt;&lt;br&gt;&lt;/div&gt;&lt;div&gt;&lt;div&gt;&lt;font&gt;&lt;span&gt;&lt;br&gt;&lt;/span&gt;&lt;/font&gt;&lt;/div&gt;&lt;div&gt;&lt;font&gt;&lt;span&gt;Machu Picchu Trek&lt;/span&gt;&lt;/font&gt;&lt;/div&gt;&lt;div&gt;&lt;font&gt;&lt;span&gt;&lt;br&gt;&lt;/span&gt;&lt;/font&gt;&lt;/div&gt;&lt;div&gt;&lt;font&gt;&lt;span&gt;&lt;br&gt;&lt;/span&gt;&lt;/font&gt;&lt;/div&gt;&lt;div&gt;&lt;font&gt;&lt;span&gt;&lt;br&gt;&lt;/span&gt;&lt;/font&gt;&lt;/div&gt;&lt;div&gt;&lt;font&gt;&lt;span&gt;&lt;br&gt;&lt;/span&gt;&lt;/font&gt;&lt;/div&gt;&lt;div&gt;&lt;font&gt;&lt;span&gt;&lt;br&gt;&lt;/span&gt;&lt;/font&gt;&lt;/div&gt;&lt;div&gt;&lt;font&gt;&lt;span&gt;&lt;br&gt;&lt;/span&gt;&lt;/font&gt;&lt;/div&gt;&lt;div&gt;&lt;font&gt;&lt;span&gt;&lt;br&gt;&lt;/span&gt;&lt;/font&gt;&lt;/div&gt;&lt;div&gt;&lt;font&gt;&lt;span&gt;&lt;br&gt;&lt;/span&gt;&lt;/font&gt;&lt;/div&gt;&lt;div&gt;&lt;font&gt;&lt;span&gt;&lt;br&gt;&lt;/span&gt;&lt;/font&gt;&lt;/div&gt;&lt;div&gt;&lt;font&gt;&lt;span&gt;&lt;br&gt;&lt;/span&gt;&lt;/font&gt;&lt;/div&gt;&lt;div&gt;&lt;font&gt;&lt;span&gt;&lt;br&gt;&lt;/span&gt;&lt;/font&gt;&lt;/div&gt;&lt;div&gt;&lt;br&gt;&lt;/div&gt;&lt;div&gt;&lt;font&gt;&lt;span&gt;&lt;br&gt;&lt;/span&gt;&lt;/font&gt;&lt;/div&gt;&lt;div&gt;&lt;font&gt;&lt;span&gt;&lt;br&gt;&lt;/span&gt;&lt;/font&gt;&lt;/div&gt;&lt;div&gt;&lt;font&gt;&lt;span&gt;&lt;br&gt;&lt;/span&gt;&lt;/font&gt;&lt;/div&gt;&lt;div&gt;&lt;font&gt;&lt;span&gt;&lt;br&gt;&lt;/span&gt;&lt;/font&gt;&lt;/div&gt;&lt;div&gt;&lt;font&gt;&lt;span&gt;&lt;br&gt;&lt;/span&gt;&lt;/font&gt;&lt;/div&gt;&lt;div&gt;&lt;font&gt;&lt;span&gt;&lt;br&gt;&lt;/span&gt;&lt;/font&gt;&lt;/div&gt;&lt;div&gt;&lt;font&gt;&lt;span&gt;Description of the trip including a summary&amp;nbsp;&lt;/span&gt;&lt;/font&gt;&lt;/div&gt;&lt;div&gt;&lt;font&gt;&lt;span&gt;about it, duration and price.&lt;/span&gt;&lt;/font&gt;&lt;/div&gt;&lt;/div&gt;" id="82TyVXRPf8ZYdx59g4k8-30">
          <mxCell style="shape=ext;double=1;rounded=0;whiteSpace=wrap;html=1;fontSize=10;fontStyle=3;fontFamily=Comic Sans MS;" vertex="1" parent="1">
            <mxGeometry x="420" y="230" width="360" height="310" as="geometry" />
          </mxCell>
        </UserObject>
        <UserObject label="&lt;div&gt;&lt;span style=&quot;background-color: transparent; color: light-dark(rgb(0, 0, 0), rgb(255, 255, 255));&quot;&gt;African Safari&lt;/span&gt;&lt;/div&gt;&lt;div&gt;&lt;span style=&quot;background-color: transparent; color: light-dark(rgb(0, 0, 0), rgb(255, 255, 255));&quot;&gt;&lt;br&gt;&lt;/span&gt;&lt;/div&gt;&lt;div&gt;&lt;span style=&quot;background-color: transparent; color: light-dark(rgb(0, 0, 0), rgb(255, 255, 255));&quot;&gt;&lt;br&gt;&lt;/span&gt;&lt;/div&gt;&lt;div&gt;&lt;span style=&quot;background-color: transparent; color: light-dark(rgb(0, 0, 0), rgb(255, 255, 255));&quot;&gt;&lt;br&gt;&lt;/span&gt;&lt;/div&gt;&lt;div&gt;&lt;div&gt;&lt;font&gt;&lt;span&gt;&lt;br&gt;&lt;/span&gt;&lt;/font&gt;&lt;/div&gt;&lt;div&gt;&lt;font&gt;&lt;span&gt;&lt;br&gt;&lt;/span&gt;&lt;/font&gt;&lt;/div&gt;&lt;div&gt;&lt;font&gt;&lt;span&gt;&lt;br&gt;&lt;/span&gt;&lt;/font&gt;&lt;/div&gt;&lt;div&gt;&lt;font&gt;&lt;span&gt;&lt;br&gt;&lt;/span&gt;&lt;/font&gt;&lt;/div&gt;&lt;div&gt;&lt;font&gt;&lt;span&gt;&lt;br&gt;&lt;/span&gt;&lt;/font&gt;&lt;/div&gt;&lt;div&gt;&lt;font&gt;&lt;span&gt;&lt;br&gt;&lt;/span&gt;&lt;/font&gt;&lt;/div&gt;&lt;div&gt;&lt;font&gt;&lt;span&gt;&lt;br&gt;&lt;/span&gt;&lt;/font&gt;&lt;/div&gt;&lt;div&gt;&lt;font&gt;&lt;span&gt;&lt;br&gt;&lt;/span&gt;&lt;/font&gt;&lt;/div&gt;&lt;div&gt;&lt;font&gt;&lt;span&gt;&lt;br&gt;&lt;/span&gt;&lt;/font&gt;&lt;/div&gt;&lt;div&gt;&lt;font&gt;&lt;span&gt;&lt;br&gt;&lt;/span&gt;&lt;/font&gt;&lt;/div&gt;&lt;div&gt;&lt;font&gt;&lt;span&gt;&lt;br&gt;&lt;/span&gt;&lt;/font&gt;&lt;/div&gt;&lt;div&gt;&lt;font&gt;&lt;span&gt;&lt;br&gt;&lt;/span&gt;&lt;/font&gt;&lt;/div&gt;&lt;div&gt;&lt;font&gt;&lt;span&gt;&lt;br&gt;&lt;/span&gt;&lt;/font&gt;&lt;/div&gt;&lt;div&gt;&lt;font&gt;&lt;span&gt;&lt;br&gt;&lt;/span&gt;&lt;/font&gt;&lt;/div&gt;&lt;div&gt;&lt;font&gt;&lt;span&gt;&lt;br&gt;&lt;/span&gt;&lt;/font&gt;&lt;/div&gt;&lt;div&gt;&lt;font&gt;&lt;span&gt;&lt;br&gt;&lt;/span&gt;&lt;/font&gt;&lt;/div&gt;&lt;div&gt;&lt;font&gt;&lt;span&gt;Description of the trip including a summary&amp;nbsp;&lt;/span&gt;&lt;/font&gt;&lt;/div&gt;&lt;div&gt;&lt;font&gt;&lt;span&gt;about it, duration and price.&lt;/span&gt;&lt;/font&gt;&lt;/div&gt;&lt;/div&gt;" id="82TyVXRPf8ZYdx59g4k8-31">
          <mxCell style="shape=ext;double=1;rounded=0;whiteSpace=wrap;html=1;fontSize=10;fontStyle=3;fontFamily=Comic Sans MS;" vertex="1" parent="1">
            <mxGeometry x="10" y="570" width="360" height="340" as="geometry" />
          </mxCell>
        </UserObject>
        <mxCell id="82TyVXRPf8ZYdx59g4k8-34" value="" style="verticalLabelPosition=bottom;shadow=0;dashed=0;align=center;html=1;verticalAlign=top;strokeWidth=1;shape=mxgraph.mockup.graphics.simpleIcon;strokeColor=#999999;fontSize=10;fontStyle=3;fontFamily=Comic Sans MS;" vertex="1" parent="1">
          <mxGeometry x="60" y="630" width="260" height="200" as="geometry" />
        </mxCell>
        <mxCell id="82TyVXRPf8ZYdx59g4k8-35" value="" style="verticalLabelPosition=bottom;shadow=0;dashed=0;align=center;html=1;verticalAlign=top;strokeWidth=1;shape=mxgraph.mockup.graphics.simpleIcon;strokeColor=#999999;fontSize=10;fontStyle=3;fontFamily=Comic Sans MS;" vertex="1" parent="1">
          <mxGeometry x="500" y="300" width="220" height="180" as="geometry" />
        </mxCell>
        <mxCell id="82TyVXRPf8ZYdx59g4k8-36" value="" style="verticalLabelPosition=bottom;shadow=0;dashed=0;align=center;html=1;verticalAlign=top;strokeWidth=1;shape=mxgraph.mockup.graphics.simpleIcon;strokeColor=#999999;fontSize=10;fontStyle=3;fontFamily=Comic Sans MS;" vertex="1" parent="1">
          <mxGeometry x="80" y="290" width="240" height="180" as="geometry" />
        </mxCell>
        <mxCell id="82TyVXRPf8ZYdx59g4k8-153" value="" style="group" vertex="1" connectable="0" parent="1">
          <mxGeometry x="390" y="600" width="430" height="370" as="geometry" />
        </mxCell>
        <mxCell id="82TyVXRPf8ZYdx59g4k8-107" value="" style="shape=ext;double=1;rounded=0;whiteSpace=wrap;html=1;" vertex="1" parent="82TyVXRPf8ZYdx59g4k8-153">
          <mxGeometry width="429.99999999999994" height="369.9999999999999" as="geometry" />
        </mxCell>
        <mxCell id="82TyVXRPf8ZYdx59g4k8-108" value="Trip Name" style="shape=ext;double=1;rounded=0;whiteSpace=wrap;html=1;" vertex="1" parent="82TyVXRPf8ZYdx59g4k8-153">
          <mxGeometry width="92.14285714285714" height="44.848484848484844" as="geometry" />
        </mxCell>
        <mxCell id="82TyVXRPf8ZYdx59g4k8-109" value="Destination" style="shape=ext;double=1;rounded=0;whiteSpace=wrap;html=1;" vertex="1" parent="82TyVXRPf8ZYdx59g4k8-153">
          <mxGeometry x="92.14285714285714" width="81.9047619047619" height="44.848484848484844" as="geometry" />
        </mxCell>
        <mxCell id="82TyVXRPf8ZYdx59g4k8-110" value="Duration" style="shape=ext;double=1;rounded=0;whiteSpace=wrap;html=1;" vertex="1" parent="82TyVXRPf8ZYdx59g4k8-153">
          <mxGeometry x="174.04761904761904" width="71.66666666666666" height="44.848484848484844" as="geometry" />
        </mxCell>
        <mxCell id="82TyVXRPf8ZYdx59g4k8-111" value="Price" style="shape=ext;double=1;rounded=0;whiteSpace=wrap;html=1;" vertex="1" parent="82TyVXRPf8ZYdx59g4k8-153">
          <mxGeometry x="245.7142857142857" width="92.14285714285714" height="44.848484848484844" as="geometry" />
        </mxCell>
        <mxCell id="82TyVXRPf8ZYdx59g4k8-112" style="edgeStyle=orthogonalEdgeStyle;rounded=0;orthogonalLoop=1;jettySize=auto;html=1;exitX=0.5;exitY=1;exitDx=0;exitDy=0;entryX=0;entryY=0.75;entryDx=0;entryDy=0;" edge="1" parent="82TyVXRPf8ZYdx59g4k8-153" source="82TyVXRPf8ZYdx59g4k8-110" target="82TyVXRPf8ZYdx59g4k8-110">
          <mxGeometry relative="1" as="geometry" />
        </mxCell>
        <mxCell id="82TyVXRPf8ZYdx59g4k8-113" value="Difficulty" style="shape=ext;double=1;rounded=0;whiteSpace=wrap;html=1;" vertex="1" parent="82TyVXRPf8ZYdx59g4k8-153">
          <mxGeometry x="327.6190476190476" width="102.38095238095238" height="44.848484848484844" as="geometry" />
        </mxCell>
        <mxCell id="82TyVXRPf8ZYdx59g4k8-114" value="Amazon&amp;nbsp;&lt;div&gt;Adventure&lt;/div&gt;" style="shape=ext;double=1;rounded=0;whiteSpace=wrap;html=1;" vertex="1" parent="82TyVXRPf8ZYdx59g4k8-153">
          <mxGeometry y="44.848484848484844" width="92.14285714285714" height="67.27272727272725" as="geometry" />
        </mxCell>
        <mxCell id="82TyVXRPf8ZYdx59g4k8-115" value="Pichu Micchu&lt;div&gt;Trek&lt;/div&gt;" style="shape=ext;double=1;rounded=0;whiteSpace=wrap;html=1;" vertex="1" parent="82TyVXRPf8ZYdx59g4k8-153">
          <mxGeometry y="112.1212121212121" width="92.14285714285714" height="67.27272727272725" as="geometry" />
        </mxCell>
        <mxCell id="82TyVXRPf8ZYdx59g4k8-116" value="African Safari" style="shape=ext;double=1;rounded=0;whiteSpace=wrap;html=1;" vertex="1" parent="82TyVXRPf8ZYdx59g4k8-153">
          <mxGeometry y="173.78787878787875" width="92.14285714285714" height="61.66666666666664" as="geometry" />
        </mxCell>
        <mxCell id="82TyVXRPf8ZYdx59g4k8-117" value="Bali Beach&lt;div&gt;Gateway&lt;/div&gt;" style="shape=ext;double=1;rounded=0;whiteSpace=wrap;html=1;" vertex="1" parent="82TyVXRPf8ZYdx59g4k8-153">
          <mxGeometry y="235.4545454545454" width="92.14285714285714" height="67.27272727272725" as="geometry" />
        </mxCell>
        <mxCell id="82TyVXRPf8ZYdx59g4k8-118" value="European River&lt;div&gt;Cruise&lt;/div&gt;" style="shape=ext;double=1;rounded=0;whiteSpace=wrap;html=1;" vertex="1" parent="82TyVXRPf8ZYdx59g4k8-153">
          <mxGeometry y="302.72727272727263" width="92.14285714285714" height="67.27272727272725" as="geometry" />
        </mxCell>
        <mxCell id="82TyVXRPf8ZYdx59g4k8-119" value="Amazon&lt;div&gt;Rainforest&amp;nbsp;&lt;/div&gt;" style="shape=ext;double=1;rounded=0;whiteSpace=wrap;html=1;" vertex="1" parent="82TyVXRPf8ZYdx59g4k8-153">
          <mxGeometry x="92.14285714285714" y="44.848484848484844" width="81.9047619047619" height="67.27272727272725" as="geometry" />
        </mxCell>
        <mxCell id="82TyVXRPf8ZYdx59g4k8-120" value="7 days/6&lt;div&gt;nights&amp;nbsp;&lt;/div&gt;" style="shape=ext;double=1;rounded=0;whiteSpace=wrap;html=1;" vertex="1" parent="82TyVXRPf8ZYdx59g4k8-153">
          <mxGeometry x="174.04761904761904" y="44.848484848484844" width="71.66666666666666" height="67.27272727272725" as="geometry" />
        </mxCell>
        <mxCell id="82TyVXRPf8ZYdx59g4k8-121" value="Moderate" style="shape=ext;double=1;rounded=0;whiteSpace=wrap;html=1;" vertex="1" parent="82TyVXRPf8ZYdx59g4k8-153">
          <mxGeometry x="327.6190476190476" y="44.848484848484844" width="102.38095238095238" height="67.27272727272725" as="geometry" />
        </mxCell>
        <mxCell id="82TyVXRPf8ZYdx59g4k8-122" value="$1,200" style="shape=ext;double=1;rounded=0;whiteSpace=wrap;html=1;" vertex="1" parent="82TyVXRPf8ZYdx59g4k8-153">
          <mxGeometry x="245.7142857142857" y="44.848484848484844" width="81.9047619047619" height="67.27272727272725" as="geometry" />
        </mxCell>
        <mxCell id="82TyVXRPf8ZYdx59g4k8-123" value="Peru" style="shape=ext;double=1;rounded=0;whiteSpace=wrap;html=1;" vertex="1" parent="82TyVXRPf8ZYdx59g4k8-153">
          <mxGeometry x="92.14285714285714" y="106.5151515151515" width="81.9047619047619" height="67.27272727272725" as="geometry" />
        </mxCell>
        <mxCell id="82TyVXRPf8ZYdx59g4k8-124" value="5 days/4&lt;div&gt;nights&lt;/div&gt;" style="shape=ext;double=1;rounded=0;whiteSpace=wrap;html=1;" vertex="1" parent="82TyVXRPf8ZYdx59g4k8-153">
          <mxGeometry x="174.04761904761904" y="106.5151515151515" width="71.66666666666666" height="67.27272727272725" as="geometry" />
        </mxCell>
        <mxCell id="82TyVXRPf8ZYdx59g4k8-125" value="$950" style="shape=ext;double=1;rounded=0;whiteSpace=wrap;html=1;" vertex="1" parent="82TyVXRPf8ZYdx59g4k8-153">
          <mxGeometry x="245.7142857142857" y="106.5151515151515" width="81.9047619047619" height="67.27272727272725" as="geometry" />
        </mxCell>
        <mxCell id="82TyVXRPf8ZYdx59g4k8-126" value="Challenging" style="shape=ext;double=1;rounded=0;whiteSpace=wrap;html=1;" vertex="1" parent="82TyVXRPf8ZYdx59g4k8-153">
          <mxGeometry x="327.6190476190476" y="106.5151515151515" width="102.38095238095238" height="67.27272727272725" as="geometry" />
        </mxCell>
        <mxCell id="82TyVXRPf8ZYdx59g4k8-127" value="Kenya\&lt;div&gt;Tanzania&lt;/div&gt;" style="shape=ext;double=1;rounded=0;whiteSpace=wrap;html=1;" vertex="1" parent="82TyVXRPf8ZYdx59g4k8-153">
          <mxGeometry x="92.14285714285714" y="173.78787878787875" width="81.9047619047619" height="61.66666666666664" as="geometry" />
        </mxCell>
        <mxCell id="82TyVXRPf8ZYdx59g4k8-128" value="10 days/9&lt;div&gt;nights&lt;/div&gt;" style="shape=ext;double=1;rounded=0;whiteSpace=wrap;html=1;" vertex="1" parent="82TyVXRPf8ZYdx59g4k8-153">
          <mxGeometry x="174.04761904761904" y="170.9848484848484" width="71.66666666666666" height="64.46969696969695" as="geometry" />
        </mxCell>
        <mxCell id="82TyVXRPf8ZYdx59g4k8-129" value="$2,500" style="shape=ext;double=1;rounded=0;whiteSpace=wrap;html=1;" vertex="1" parent="82TyVXRPf8ZYdx59g4k8-153">
          <mxGeometry x="245.7142857142857" y="173.78787878787875" width="81.9047619047619" height="61.66666666666664" as="geometry" />
        </mxCell>
        <mxCell id="82TyVXRPf8ZYdx59g4k8-130" value="Easy to&lt;div&gt;Moderate&lt;/div&gt;" style="shape=ext;double=1;rounded=0;whiteSpace=wrap;html=1;" vertex="1" parent="82TyVXRPf8ZYdx59g4k8-153">
          <mxGeometry x="327.6190476190476" y="173.78787878787875" width="102.38095238095238" height="61.66666666666664" as="geometry" />
        </mxCell>
        <mxCell id="82TyVXRPf8ZYdx59g4k8-131" value="Bali,&lt;div&gt;Indonesia&amp;nbsp;&lt;/div&gt;" style="shape=ext;double=1;rounded=0;whiteSpace=wrap;html=1;" vertex="1" parent="82TyVXRPf8ZYdx59g4k8-153">
          <mxGeometry x="92.14285714285714" y="232.65151515151507" width="81.9047619047619" height="70.07575757575756" as="geometry" />
        </mxCell>
        <mxCell id="82TyVXRPf8ZYdx59g4k8-132" value="7 days/6&lt;div&gt;nights&lt;/div&gt;" style="shape=ext;double=1;rounded=0;whiteSpace=wrap;html=1;" vertex="1" parent="82TyVXRPf8ZYdx59g4k8-153">
          <mxGeometry x="174.04761904761904" y="235.4545454545454" width="71.66666666666666" height="67.27272727272725" as="geometry" />
        </mxCell>
        <mxCell id="82TyVXRPf8ZYdx59g4k8-133" value="$800" style="shape=ext;double=1;rounded=0;whiteSpace=wrap;html=1;" vertex="1" parent="82TyVXRPf8ZYdx59g4k8-153">
          <mxGeometry x="245.7142857142857" y="235.4545454545454" width="81.9047619047619" height="67.27272727272725" as="geometry" />
        </mxCell>
        <mxCell id="82TyVXRPf8ZYdx59g4k8-134" value="Easy" style="shape=ext;double=1;rounded=0;whiteSpace=wrap;html=1;" vertex="1" parent="82TyVXRPf8ZYdx59g4k8-153">
          <mxGeometry x="327.6190476190476" y="235.4545454545454" width="102.38095238095238" height="67.27272727272725" as="geometry" />
        </mxCell>
        <mxCell id="82TyVXRPf8ZYdx59g4k8-135" value="Rhine&amp;nbsp;&lt;div&gt;River&lt;/div&gt;" style="shape=ext;double=1;rounded=0;whiteSpace=wrap;html=1;" vertex="1" parent="82TyVXRPf8ZYdx59g4k8-153">
          <mxGeometry x="92.14285714285714" y="302.72727272727263" width="81.9047619047619" height="67.27272727272725" as="geometry" />
        </mxCell>
        <mxCell id="82TyVXRPf8ZYdx59g4k8-136" value="8 days/7&lt;div&gt;nights&amp;nbsp;&lt;/div&gt;" style="shape=ext;double=1;rounded=0;whiteSpace=wrap;html=1;" vertex="1" parent="82TyVXRPf8ZYdx59g4k8-153">
          <mxGeometry x="174.04761904761904" y="302.72727272727263" width="71.66666666666666" height="67.27272727272725" as="geometry" />
        </mxCell>
        <mxCell id="82TyVXRPf8ZYdx59g4k8-137" value="$1,500" style="shape=ext;double=1;rounded=0;whiteSpace=wrap;html=1;" vertex="1" parent="82TyVXRPf8ZYdx59g4k8-153">
          <mxGeometry x="245.7142857142857" y="302.72727272727263" width="81.9047619047619" height="67.27272727272725" as="geometry" />
        </mxCell>
        <mxCell id="82TyVXRPf8ZYdx59g4k8-140" value="Easy" style="shape=ext;double=1;rounded=0;whiteSpace=wrap;html=1;" vertex="1" parent="82TyVXRPf8ZYdx59g4k8-153">
          <mxGeometry x="327.6190476190476" y="302.72727272727263" width="102.38095238095238" height="67.27272727272725" as="geometry" />
        </mxCell>
        <mxCell id="82TyVXRPf8ZYdx59g4k8-154" style="edgeStyle=orthogonalEdgeStyle;rounded=0;orthogonalLoop=1;jettySize=auto;html=1;exitX=0;exitY=0.25;exitDx=0;exitDy=0;entryX=0.005;entryY=0.617;entryDx=0;entryDy=0;entryPerimeter=0;" edge="1" parent="82TyVXRPf8ZYdx59g4k8-153" source="82TyVXRPf8ZYdx59g4k8-128" target="82TyVXRPf8ZYdx59g4k8-128">
          <mxGeometry relative="1" as="geometry" />
        </mxCell>
      </root>
    </mxGraphModel>
  </diagram>
</mxfile>
